<?xml version="1.0" encoding="utf-8"?>
<!-- Generator: Adobe Illustrator 19.0.0, SVG Export Plug-In . SVG Version: 6.00 Build 0)  -->
<svg version="1.1" id="Слой_1" xmlns="http://www.w3.org/2000/svg" xmlns:xlink="http://www.w3.org/1999/xlink" x="0px" y="0px"
	 viewBox="0 0 17.2 9.1" style="enable-background:new 0 0 17.2 9.1;" xml:space="preserve">
<style type="text/css">
	.st0{fill:#F9BC15;}
</style>
<g>
	<g>
		<path id="XMLID_29_" class="st0" d="M16.7,5.1H0.5C0.2,5.1,0,4.8,0,4.6c0-0.3,0.2-0.5,0.5-0.5h16.2c0.3,0,0.5,0.2,0.5,0.5
			C17.2,4.8,17,5.1,16.7,5.1z"/>
	</g>
	<g>
		<path id="XMLID_28_" class="st0" d="M12.8,9.1c-0.1,0-0.2,0-0.3-0.1c-0.2-0.2-0.2-0.5,0-0.7L16,4.6l-3.6-3.7
			c-0.2-0.2-0.2-0.5,0-0.7c0.2-0.2,0.5-0.2,0.7,0l3.9,4.1c0.2,0.2,0.2,0.5,0,0.7L13.2,9C13.1,9.1,12.9,9.1,12.8,9.1z"/>
	</g>
</g>
</svg>
