<?xml version="1.0" encoding="utf-8"?>
<!-- Generator: Adobe Illustrator 19.0.0, SVG Export Plug-In . SVG Version: 6.00 Build 0)  -->
<svg version="1.1" id="Слой_1" xmlns="http://www.w3.org/2000/svg" xmlns:xlink="http://www.w3.org/1999/xlink" x="0px" y="0px"
	 viewBox="0 0 416 298.8" style="enable-background:new 0 0 416 298.8;" xml:space="preserve">
<style type="text/css">
	.st0{fill:#663334;}
</style>
<path class="st0" d="M395.9,120.4v-6.7c0-26-21-47.8-48.1-47.8h-10.9C308,24.1,259.9,0,208.1,0c-51.8,0-99.9,24.1-128.8,65.9H68.5
	c-27.1,0-48.4,21.8-48.4,47.8v6.7C5.4,129.1,0,138.8,0,149.3c0,10.5,5.4,20.2,20.1,28.9v6.7c0,26,21.3,48.1,48.4,48.1h10.9
	c28.9,39.3,77,65.9,128.8,65.9c51.8,0,99.9-26.6,128.7-65.9h10.9c27.1,0,48.1-22.1,48.1-48.1v-6.7c14.7-8.7,20.1-18.4,20.1-28.9
	C416,138.8,410.6,129.1,395.9,120.4"/>
</svg>
