<?xml version="1.0" encoding="utf-8"?>
<!-- Generator: Adobe Illustrator 21.0.2, SVG Export Plug-In . SVG Version: 6.00 Build 0)  -->
<svg version="1.1" id="Слой_1" xmlns="http://www.w3.org/2000/svg" xmlns:xlink="http://www.w3.org/1999/xlink" x="0px" y="0px"
	 viewBox="0 0 377 32" style="enable-background:new 0 0 377 32;" xml:space="preserve">
<style type="text/css">
	.st0{fill:#EBB100;}
</style>
<g>
	<path class="st0" d="M1.3,1.2c2.3-0.7,4.1-1,6-1c4.8,0,8,2.2,8,5.5c0,2.6-1.8,4.1-4.5,5.4c3.6,0.5,5.7,2.6,5.7,5.2
		c0,4.5-4.8,7.2-9.9,7.2c-2.3,0-4.4-0.5-6.6-1.6L1.3,1.2z M3.1,19.2c1.2,0.7,2.6,1.1,3.8,1.1c2.9,0,5.9-1.4,5.9-4.2
		c0-2.6-3.2-3.7-7-3.7c-0.7,0-1.4,0-2,0.1L3.1,19.2z M3.8,9.7c0.7,0.1,1.4,0.1,1.9,0.1c3.1,0,6-0.8,6-3.6c0-1.6-1.4-3.2-4.4-3.2
		C6.4,3,5.3,3.1,4,3.5L3.8,9.7z"/>
	<path class="st0" d="M19.7,22.8l0.8-15.3c0.4-0.7,2.7-1.1,3.3-0.7l-0.6,6.9l1.8-0.4l4.6-6.3c1.1-0.3,3.3,0,3.8,0.6L27,14.7
		c1.6,3.7,3.5,5.5,4.9,5.5c0.6,0,1.1-0.1,1.7-0.5c0.6,0.3,0.8,1.6,0.5,2.6c-1.1,0.9-1.9,1-2.9,1c-2.8,0-4.4-2.8-6.8-7.6l-1.4,0.1
		l0,6.8C22.6,23.3,20.3,23.4,19.7,22.8z"/>
	<path class="st0" d="M43.8,20.8c1.9,0,3.4-1.4,3.8-6.4c0.1-1.8,0.3-4.2,0.3-7.6c0.8-0.4,2.9,0.1,3.4,0.6c-0.6,4.7-0.9,9.3-0.9,14.1
		c0,8.9-4.2,10.2-8.1,10.2c-3.6,0-5.9-2-5.9-4.3c0-1.9,1.1-3.8,3.5-5.2c-1.5-1.1-2.3-3.2-2.6-5.7c-0.2-2.4-0.2-4.9,0.4-9
		c0.8-0.6,2.5-0.8,3.3-0.5C39.3,15.4,40.1,20.8,43.8,20.8z M41.8,23c-1.7,0.9-2.4,2.2-2.4,3.3c0,1.3,1,2.4,3.4,2.4
		c3.4,0,4.9-2.4,4.9-8.1c-1.5,2.1-3.4,2.6-4.5,2.6C42.7,23.2,42.2,23.1,41.8,23z"/>
	<path class="st0" d="M65.3,12.5c-0.4-1.8-1.6-2.8-3.5-2.8c-2.6,0-4.6,2-4.6,5.3c0,4.1,3.9,6.8,9.7,3.9c0.5,1.1,0.5,1.6,0.2,2.7
		c-1.6,1.2-3.5,1.6-5.5,1.6c-5.7,0-7.7-4.3-7.7-8.1c0-5.6,3.7-8.3,7.5-8.5c4.6-0.2,5.9,1.8,6.6,3.5C67.8,11.7,66.5,12.2,65.3,12.5z"
		/>
	<path class="st0" d="M84.6,7l-0.5,6.4h8c0-2.1-0.1-4.4,0.2-6.3C92.9,6.5,95,6.5,95.7,7c-0.4,3.3-0.5,8.1-0.5,10.6
		c0,2.8,0.9,3,2.4,2.6c0.4,0.4,0.4,1.7,0.1,2.4c-0.4,0.4-1.3,0.8-1.9,0.8c-3,0-4-1.9-3.6-7.5l-7.9,0.2l0.2,7c-0.6,0.5-3,0.5-3.6,0
		L81,7C81.9,6.7,83.4,6.8,84.6,7z"/>
	<path class="st0" d="M113.8,18.1c0,2.3,0.9,2.4,2.2,2.2c0.5,0.4,0.2,2.3-0.5,2.9c-0.4,0-0.7,0-1.2,0c-1.8,0-2.7-1.3-3-2.6
		c-1.3,1.8-2.6,2.8-5.1,2.8c-2.9,0-6.2-2.2-6.2-7.8c0-5.7,3.3-9,7.2-9c1.9,0,3.5,0.8,4.2,1.5l0.8-1.3c0.4-0.3,1.5-0.2,1.9,0.2
		C113.9,12.3,113.8,16.5,113.8,18.1z M107.4,9.2c-2.5,0-4.3,2.5-4.3,5.7c0,3.3,1.3,5.5,4,5.5c1.4,0,2.7-0.9,3.9-2l0.4-7.9
		C110.4,9.8,108.9,9.2,107.4,9.2z"/>
	<path class="st0" d="M130,12.5c-0.4-1.8-1.6-2.8-3.5-2.8c-2.6,0-4.6,2-4.6,5.3c0,4.1,3.9,6.8,9.7,3.9c0.5,1.1,0.5,1.6,0.2,2.7
		c-1.6,1.2-3.5,1.6-5.5,1.6c-5.7,0-7.7-4.3-7.7-8.1c0-5.6,3.7-8.3,7.5-8.5c4.6-0.2,5.9,1.8,6.6,3.5C132.5,11.7,131.1,12.2,130,12.5z
		"/>
	<path class="st0" d="M156.2,13.8c0.1-2.9-0.8-4.1-2.7-4.1c-1.7,0-3.4,1.5-4.2,2.9l0,0.5l-0.3,9.7c-1.2,0.6-2.4,0.6-3.1,0.1l0.2-9.3
		c0.1-2.9-0.8-4-2.6-4c-1.5,0-3.1,0.8-4.4,3.2l-0.1,10c-0.8,0.4-2.4,0.5-3.3,0c0.2-6.4,0.8-10.2,0.3-15.8c0.6-0.7,2.2-0.8,3-0.4
		l0.3,2.6c1.6-1.8,2.9-2.8,5.5-2.8c2.2,0,3.7,1.1,4,3.3c1.8-2.2,3.3-3.3,5.9-3.3c4.2,0,4.9,3.6,4.8,6.7l-0.3,5.9
		c0,1.1,0.6,1.4,1.9,1c0.4,0.4,0.4,2,0,2.5c-0.4,0.4-1.1,0.7-2.2,0.7c-2.6,0-3-1.2-2.9-3.8L156.2,13.8z"/>
	<path class="st0" d="M179.3,14.4c0,5.4-3,9-8,9c-6.4,0-7.8-4.4-7.8-7.9c0-5.9,4.1-8.7,8-8.7C177.4,6.7,179.3,10.3,179.3,14.4z
		 M171.3,20.5c3.6,0,4.9-2.8,4.9-6c0-2.2-1.1-4.9-4.4-4.9c-2.6,0-4.9,2.2-4.9,5.9C166.9,18.1,168.1,20.5,171.3,20.5z"/>
	<path class="st0" d="M195.7,18.8c-0.1,1.7,0.7,1.7,1.3,1.6c0.2,0.5,0.5,1.8,0.2,2.4c-0.7,0.3-1.3,0.4-1.9,0.4c-2.5,0-3.1-2.4-2.5-7
		l-2.6,0.5c-1.8,4.8-3.9,6.5-6.4,6.5c-0.8,0-1.3-0.3-1.7-0.6c-0.2-0.6,0.2-1.8,0.5-2.2c2,0.5,3.7-1.6,4.7-4.1
		c-2.5-0.4-4.1-2.1-4.1-4.8c0-3.1,2.8-4.9,7-4.9c4.6,0,5.9,3.1,5.8,5.6L195.7,18.8z M189.4,9.3c-1.6,0-3.2,0.7-3.2,2.3
		c0,2.1,2.2,3.5,6.7,1.8C193.2,10.8,192.1,9.3,189.4,9.3z"/>
	<path class="st0" d="M213,15.1c-0.2,2.7,0,5,2.3,5c1.5,0,3-1,3.8-2.6c0-3.5,0.3-6.9,0.6-10.6c0.8-0.2,1.7-0.2,3.1,0
		c-0.4,3.7-0.5,8-0.5,10.1c0,2.7,0.6,3.8,2.5,3.3c0.3,0.1,0.6,0.3,0.4,0.7c-0.9,1.9-1.6,4.9-1.6,7.3c-1.2,0.4-2.2-0.1-2.7-0.5
		c-0.3-0.9-0.1-3.4,0.6-5.1c-0.9,0.4-1.9,0-1.9-2.2c-1.4,1.5-2.7,2.6-5.4,2.6c-1.9,0-3.2-1.1-3.8-2.6c-1.4,1.5-3,2.6-5.6,2.6
		c-3.6,0-4.6-2.7-4.4-6.3l0.4-9.8c1.3-0.3,2.3-0.5,3.4-0.4l-0.6,8.3c-0.2,2.7,0,5,2.3,5c1.5,0,3.1-1,3.9-2.6c0-0.2,0-0.4,0-0.6
		l0.4-9.7c0.9-0.3,1.7-0.5,3.4-0.4L213,15.1z"/>
	<path class="st0" d="M235.6,20.4c2,0,3.5-0.8,4.9-2c0.8,0.6,1.4,1.3,0.9,2.8c-1.8,1.5-4,2.4-6.9,2.2c-4.1-0.4-7.1-3.2-7.1-8.2
		c0-5,3.7-8.5,8.5-8.5c5.3,0,6.3,2.8,6.3,4.5c0,5.4-7,5.5-11.5,4.6C230.6,18.3,232.1,20.4,235.6,20.4z M239.1,11.8
		c0-1.5-1.3-2.1-3-2.1c-4,0-5.5,2.1-5.6,3.9C231.9,13.9,239.1,14.7,239.1,11.8z"/>
	<path class="st0" d="M244.7,8.7c1.5-1.5,4-2.2,6-2.2c3.1,0,4.4,1.7,4.4,3.8c0,4.1-6.4,6.3-6.4,8.8c0,1,0.6,1.5,1.8,1.5
		c1.5,0,2.8-1,4-2.6c0.5,0,1.8,1.1,2.1,2.3c-2,2.4-4.1,3.3-6.3,3.3c-2.9,0-5-1.3-5-3.9c0-4.3,6.8-6.1,6.8-9.2c0-0.9-0.6-1.1-1.7-1.1
		c-1.3,0-2.9,0.6-4.1,1.8C245.6,10.6,244.5,9.5,244.7,8.7z"/>
	<path class="st0" d="M274.7,14.4c0,5.4-3,9-8,9c-6.4,0-7.8-4.4-7.8-7.9c0-5.9,4.1-8.7,8-8.7C272.8,6.7,274.7,10.3,274.7,14.4z
		 M266.7,20.5c3.6,0,4.9-2.8,4.9-6c0-2.2-1.1-4.9-4.4-4.9c-2.6,0-4.9,2.2-4.9,5.9C262.3,18.1,263.5,20.5,266.7,20.5z"/>
	<path class="st0" d="M292.7,14.8l-4-5.5c-0.3-0.4-0.6-0.5-1-0.7c0.1-0.4,0.2-1.9,1.6-1.9c0.9-0.1,1.7,0,2.4,1.1l3,5
		c1.9-2,3.3-3.8,4.8-6c1.5,0,2.7,0.2,3.1,1.1c-0.5,1.4-4.1,4.8-6.1,7l3.7,5.2c0.5,0.8,1.4,1.2,2.1,1.2c0.2,0.8,0,2.5-2,2.4
		c-1,0-2-0.6-2.6-1.6l-3.2-5.4c-1.9,2.1-4,4.7-4.8,6.7c-1.3,0.1-2.7-0.6-3.1-1.4C288.1,19.8,290.2,17.2,292.7,14.8z"/>
	<path class="st0" d="M304.8,19.6c2.7,0.8,4.1-2.1,4.8-10l-2.5,0.5c-0.6-0.6-0.8-2.5,0.1-3h8.8c4.1,0,4.3,1.9,4.2,4l-0.3,7.5
		c-0.1,1.8,0.2,2,2.3,1.6c0.2,0.5,0.3,1.1,0.1,1.9c-0.6,0.8-1.5,1.2-3.5,1.2c-1.9,0-2.2-1.8-2.1-3.1L317,12c0.1-1.3-0.4-2.1-1.3-2.2
		l-3.6-0.3c-0.6,10-2.8,13.7-5.8,13.7c-0.9,0-1.2-0.2-2.1-0.5C303.7,22.3,304.1,20.2,304.8,19.6z"/>
	<path class="st0" d="M332.8,20.4c2,0,3.5-0.8,4.9-2c0.8,0.6,1.4,1.3,0.9,2.8c-1.8,1.5-4,2.4-6.9,2.2c-4.1-0.4-7.1-3.2-7.1-8.2
		c0-5,3.7-8.5,8.5-8.5c5.3,0,6.3,2.8,6.3,4.5c0,5.4-7,5.5-11.5,4.6C327.8,18.3,329.2,20.4,332.8,20.4z M336.3,11.8
		c0-1.5-1.3-2.1-3-2.1c-4,0-5.5,2.1-5.6,3.9C329.1,13.9,336.3,14.7,336.3,11.8z"/>
	<path class="st0" d="M356.4,1.7c-1.7,5.9-10.1-0.6-11.3,9.4c1.4-2,3.9-3.1,6.3-3.1c5.1,0,6.8,3.3,6.8,7c0,5.1-3.4,8.5-7.8,8.5
		c-5.7,0-8-3-8-9.3C342.4-2,352.6,2.6,354.7,0C355.4,0.2,356.2,0.9,356.4,1.7z M345.3,14c0,4.4,1.8,6.3,5,6.3c2.6,0,4.6-2.5,4.6-5.3
		c0-2.9-1.9-4.1-3.7-4.1C348.5,11,347.1,12.6,345.3,14z"/>
	<path class="st0" d="M374.7,18.1c0,2.3,0.9,2.4,2.2,2.2c0.5,0.4,0.2,2.3-0.5,2.9c-0.4,0-0.7,0-1.2,0c-1.8,0-2.7-1.3-3-2.6
		c-1.3,1.8-2.6,2.8-5.1,2.8c-2.9,0-6.2-2.2-6.2-7.8c0-5.7,3.3-9,7.2-9c1.9,0,3.5,0.8,4.2,1.5l0.8-1.3c0.4-0.3,1.5-0.2,1.9,0.2
		C374.7,12.3,374.7,16.5,374.7,18.1z M368.3,9.2c-2.5,0-4.3,2.5-4.3,5.7c0,3.3,1.3,5.5,4,5.5c1.4,0,2.7-0.9,3.9-2l0.4-7.9
		C371.3,9.8,369.8,9.2,368.3,9.2z"/>
</g>
</svg>
